{"title":"Yogi Bear 2010 DVDrip Dutch Klam","uid":6512401,"size":1374403219,"categoryP":"video","categoryS":"movies","magnet":"?xt=urn:btih:af2a2889c2274591bc51b8c3f37da4a2e2e1a711&amp;dn=Yogi+Bear+2010+DVDrip+Dutch+Klam&amp;tr=udp%3A%2F%2Ftracker.openbittorrent.com%3A80&amp;tr=udp%3A%2F%2Fopen.demonii.com%3A1337&amp;tr=udp%3A%2F%2Ftracker.coppersurfer.tk%3A6969&amp;tr=udp%3A%2F%2Fexodus.desync.com%3A6969","seeders":1,"leechers":0,"uploader":"Klambake","files":-1,"time":1309686194,"description":"[img] http://img842.imageshack.us/img842/268/68045.jpg[/img]\n\nmet bekende Nederlandse stemmen,\n\nYogi is een beer die in het Yellystone Park woont. Daar staat hij bekend bekend vanwege zijn talloze pogingen om picknick-mandjes te stelen van kampeerders. Dit tot groot ongenoegen van Park Ranger Smith. Yogi wordt altijd bijgestaan door de jonge beer Boo-Boo. Wanneer Yogi erachter komt dat de gierige Mayor Brown het Yellystone Park voor eens en altijd wil sluiten, moet hij een team vormen met Boo-Boo ÃƒÂ©n oude vijand Ranger Smith om dit tegen te gaan, anders zullen families nooit meer kunnen genieten van de natuur en raken Yogi en Boo-Boo hun ''thuis'' kwijt. Tijdens het avontuur maken ze kennis met Rachel, een natuurdocumentaire-maker, die Yogi en Boo-Boo probeert te filmen voor haar volgende film.\n\nA documentary filmmaker travels to Jellystone Park to shoot a project and soon crosses paths with Yogi Bear, his sidekick Boo-Boo, and Ranger Smith.\n\nDutch spoken / Nederlands gesproken\n\n------------------ Dutch Friends ------------------\nYou can find my Friends at: http://www.Film-Test.nl \n------ They got my dutchs subs ---- and more ------\n\nGeneral:\n\nComplete name                    : Yogi Bear\\Yogi Bear.avi\nFormat                           : AVI\nFormat/Info                      : Audio Video Interleave\nFile size                        : 1.27 GiB\nDuration                         : 1h 17mn\nOverall bit rate                 : 2 363 Kbps\n\nVideo:\n\nFormat                           : MPEG-4 Visual\nFormat profile                   : Simple@L3\nFormat settings, BVOP            : No\nFormat settings, QPel            : No\nFormat settings, GMC             : No warppoints\nFormat settings, Matrix          : Default (H.263)\nCodec ID                         : XVID\nCodec ID/Hint                    : XviD\nDuration                         : 1h 17mn\nBit rate                         : 1 968 Kbps\nWidth                            : 652 pixels\nHeight                           : 352 pixels\nDisplay aspect ratio             : 1.852\nFrame rate                       : 25.000 fps\nColor space                      : YUV\nChroma subsampling               : 4:2:0\nBit depth                        : 8 bits\nScan type                        : Progressive\nBits/(Pixel*Frame)               : 0.343\nStream size                      : 1.06 GiB (83%)\nWriting library                  : XviD 1.1.2 (UTC 2006-11-01)\n\nAudio:\n\nFormat                           : AC-3\nFormat/Info                      : Audio Coding 3\nMode extension                   : CM (complete main)\nCodec ID                         : 2000\nDuration                         : 1h 17mn\nBit rate mode                    : Constant\nBit rate                         : 384 Kbps\nChannel(s)                       : 6 channels\nChannel positions                : Front: L C R, Side: L R, LFE\nSampling rate                    : 48.0 KHz\nBit depth                        : 16 bits\nStream size                      : 212 MiB (16%)\nAlignment                        : Aligned on interleaves\nInterleave, duration             : 32 ms (0.80 video frame)\nInterleave, preload duration     : 864 ms\n\n","torrent":{"xt":"urn:btih:af2a2889c2274591bc51b8c3f37da4a2e2e1a711","amp;dn":"Yogi+Bear+2010+DVDrip+Dutch+Klam","amp;tr":["udp%3A%2F%2Ftracker.openbittorrent.com%3A80","udp%3A%2F%2Fopen.demonii.com%3A1337","udp%3A%2F%2Ftracker.coppersurfer.tk%3A6969","udp%3A%2F%2Fexodus.desync.com%3A6969"],"infoHash":"af2a2889c2274591bc51b8c3f37da4a2e2e1a711","infoHashBuffer":{"type":"Buffer","data":[175,42,40,137,194,39,69,145,188,81,184,195,243,125,164,162,226,225,167,17]},"announce":[],"urlList":[]}}